<svg xmlns="http://www.w3.org/2000/svg" width="31" height="38" viewBox="0 0 31 38" fill="none">
  <path d="M17.3569 6.72298C20.8937 7.14974 24.0639 8.78565 26.4584 11.207C29.2622 14.0459 30.9969 17.9702 30.9969 22.3027C30.9969 26.6353 29.2622 30.5596 26.4584 33.4015C23.6547 36.2435 19.7789 38 15.4969 38C11.218 38 7.34227 36.2435 4.53852 33.4015C1.73478 30.5627 0 26.6383 0 22.3058C0 17.9733 1.73478 14.049 4.53852 11.2101C7.10709 8.60938 10.5767 6.91471 14.428 6.64876V4.01709C14.428 3.97689 14.431 3.93669 14.4341 3.89958H11.5296C11.0531 3.89958 10.6652 3.50374 10.6652 3.02441V0.875163C10.6652 0.395833 11.0562 0 11.5326 0H20.2584C20.7349 0 21.1258 0.395833 21.1258 0.875163V3.02132C21.1258 3.50374 20.7349 3.89648 20.2584 3.89648H17.3539C17.3569 3.93669 17.36 3.9738 17.36 4.014V6.72298H17.3569ZM16.7431 19.9618C17.5677 20.4102 18.1266 21.2915 18.1266 22.3058C18.1266 23.7747 16.9507 24.9684 15.4969 24.9684C14.0462 24.9684 12.8673 23.7778 12.8673 22.3058C12.8673 21.2915 13.4293 20.4102 14.2508 19.9618V13.8634C14.2508 13.1676 14.8067 12.6017 15.4939 12.6017C16.1811 12.6017 16.74 13.1646 16.74 13.8634L16.7431 19.9618ZM29.421 11.4637C30.0227 10.0103 29.9524 8.48568 29.0911 7.46826C28.0588 6.24365 26.1897 6.10449 24.4579 6.96419C26.2904 8.24137 27.958 9.72575 29.421 11.4637ZM1.57901 11.4637C0.97734 10.0103 1.04759 8.48568 1.90887 7.46826C2.94118 6.24365 4.81034 6.10449 6.54512 6.96419C4.7065 8.24137 3.03892 9.72575 1.57901 11.4637ZM24.6992 12.9914C22.3444 10.6071 19.0917 9.132 15.5 9.132C11.9083 9.132 8.65557 10.6071 6.30079 12.9914C3.94601 15.3757 2.48916 18.6691 2.48916 22.3058C2.48916 25.9425 3.94601 29.2391 6.30079 31.6203C8.65557 34.0015 11.9083 35.4797 15.5 35.4797C19.0948 35.4797 22.3475 34.0046 24.6992 31.6203C27.0509 29.236 28.5108 25.9425 28.5108 22.3027C28.5108 18.6691 27.054 15.3757 24.6992 12.9914Z" fill="#4B9AFA"/>
</svg>