<svg width="26" height="18" viewBox="0 0 26 18" fill="none" xmlns="http://www.w3.org/2000/svg">
<path id="Vector" fill-rule="evenodd" clip-rule="evenodd" d="M2.71597 0H23.284C24.7792 0 26 1.18175 26 2.62905V15.3713C26 16.8186 24.7792 18 23.284 18H2.71597C1.22082 18 0 16.8186 0 15.3713V2.62905C0 1.9054 0.305205 1.24814 0.797305 0.771788L0.798605 0.773046C1.29168 0.296067 1.97067 0 2.71597 0ZM23.5171 16.7066L15.061 9.82842C13.8734 10.7846 12.126 10.7849 10.9386 9.82842L2.48292 16.7066C2.73255 16.7478 23.2675 16.7478 23.5171 16.7066ZM16.0797 9L24.5689 15.9055C24.6427 15.7413 24.6836 15.5604 24.6836 15.3709V2.62905C24.6836 2.43964 24.6427 2.25873 24.5689 2.09449L16.0797 9ZM1.43112 15.9055L9.92032 9L1.43112 2.09418C1.35734 2.25842 1.31638 2.43933 1.31638 2.62874V15.3709C1.31638 15.5607 1.35734 15.7413 1.43112 15.9055ZM2.4826 1.29313L11.7701 8.84803C12.4643 9.41279 13.5357 9.41279 14.2299 8.84803L23.5171 1.29345L2.4826 1.29313Z" fill="#93AAC9"/>
</svg>
