<svg width="155" height="157" viewBox="0 0 155 157" fill="none" xmlns="http://www.w3.org/2000/svg">
<g clip-path="url(#clip0_90_138)">
<path d="M96.816 58.5633L103.194 50.9555L111.669 58.9057L103.883 64.7468C105.834 67.2878 107.211 70.2172 107.919 73.3351C109.45 80.1357 109.454 86.8982 106.452 93.3226C102.497 101.776 95.6721 106.729 86.466 108.259C82.0606 108.99 77.5787 109.248 73.1393 109.764C70.8622 110.052 68.6612 110.769 66.6546 111.877C66.107 112.178 65.629 112.59 65.2513 113.086C64.3413 114.286 64.6305 115.791 66.0167 116.349C67.2539 116.832 68.5567 117.128 69.882 117.228C73.2498 117.494 76.5709 116.898 79.8834 116.383C84.2165 115.685 88.5411 114.929 92.9677 115.313C96.6672 115.635 100.252 116.378 103.535 118.179C109.569 121.497 112.435 126.725 112.745 133.454C113.107 141.21 109.624 146.937 103.254 151.121C98.7848 154.079 93.8266 155.686 88.5623 156.467C77.6127 158.09 67.3009 155.994 57.4994 151.091C56.5299 150.605 55.6071 150.018 54.6801 149.451C54.1741 149.139 53.6978 148.771 53.1365 148.378L60.1698 138.057C60.5015 138.264 60.8162 138.458 61.1223 138.657C65.4129 141.396 69.9118 143.695 74.9167 144.827C80.7436 146.159 86.8338 145.788 92.4532 143.758C94.379 143.054 96.141 141.968 97.6324 140.567C101.608 136.941 100.83 129.578 95.0811 127.444C91.6557 126.204 87.9666 125.862 84.3696 126.45C81.0273 126.936 77.7105 127.608 74.3639 128.052C70.0224 128.631 65.7063 128.543 61.5306 127.004C55.4838 124.772 54.2124 119.286 54.9565 115.136C55.3818 112.875 56.9168 111.311 58.6688 109.95C61.0031 108.198 63.6618 106.919 66.493 106.188L67.3945 105.935L65.9359 105.174C57.3676 100.647 52.9069 93.462 52.1585 83.872C51.7886 79.0368 52.201 74.3073 54.3272 69.8947C58.3498 61.5473 65.0259 56.4711 74.1683 54.8059C80.1259 53.6733 86.2811 54.17 91.9769 56.2429C93.6013 56.8346 95.1108 57.7349 96.816 58.5633ZM65.2385 81.205C65.4682 82.8956 65.5915 84.5863 65.9402 86.2769C67.5305 93.8551 73.0968 98.5339 80.5213 98.6311C86.6913 98.7072 91.0329 95.8881 93.5758 90.3471C95.1746 86.8686 95.5701 83.1619 95.3107 79.3834C95.156 77.0518 94.5114 74.7783 93.4184 72.7096C88.9323 64.1677 77.9571 61.9953 70.8601 68.2971C67.0245 71.6741 65.3449 76.0782 65.2385 81.205Z" fill="white"/>
<path d="M8.43653 65.8583H0V55.6427H8.43653V54.5988C8.43653 50.1271 8.43653 45.6539 8.43653 41.1794C8.43653 40.7145 8.46629 40.3933 9.01059 40.1904C12.9865 38.7027 16.9496 37.1769 20.917 35.6638C21.0403 35.6173 21.1721 35.5919 21.4017 35.5243V55.6258H41.481V65.8161H21.4102V66.6614C21.4102 78.6733 21.4102 90.6852 21.4102 102.697C21.356 105.683 21.7765 108.658 22.6562 111.514C24.0637 115.825 27.1338 118.09 31.5434 118.724C35.8255 119.337 39.8992 118.572 43.8325 116.881L44.8531 116.433L46.7921 127.896C44.0154 128.365 41.3237 128.957 38.598 129.24C35.4269 129.577 32.2407 129.756 29.0516 129.777C20.6831 129.811 13.4882 124.823 10.2395 116.919C8.97497 113.708 8.36082 110.279 8.43228 106.831C8.43228 93.5423 8.43228 80.2554 8.43228 66.9699L8.43653 65.8583Z" fill="white"/>
<path d="M141.831 128.412H128.899V66.5261H118.881V55.6977H141.843L141.831 128.412Z" fill="white"/>
<path d="M142.694 3.10653C142.379 3.32208 142.222 3.44465 142.039 3.55032C140.593 4.39563 137.829 3.76587 136.656 2.6247C135.899 1.88928 135.729 0.693157 136.171 0C136.677 0.274727 140.649 2.16823 142.694 3.10653Z" fill="#4B9AFA"/>
<path d="M155 23.5293C154.949 23.7364 154.923 24.4676 154.847 24.662C154.741 24.9494 154.609 24.941 154.481 24.941C154.088 24.957 153.7 24.8425 153.38 24.6155C152.104 23.5462 152.104 20.913 153.333 19.7972C153.95 19.2478 154.464 19.2605 154.724 19.5732C154.907 19.8845 155.003 20.2394 155 20.6003V23.5293Z" fill="#4B9AFA"/>
<path d="M113.736 36.1245C113.736 33.7872 115.556 32.367 117.844 32.9334C118.967 33.2484 119.961 33.9088 120.684 34.8199C121.406 35.731 121.82 36.846 121.866 38.0053C121.866 40.2876 120.059 41.7416 117.818 41.2344C116.678 40.928 115.666 40.2665 114.931 39.3469C114.197 38.4273 113.778 37.298 113.736 36.1245Z" fill="#4B9AFA"/>
<path d="M127.773 30.968C128.465 30.9321 129.155 31.0597 129.788 31.3404C130.421 31.621 130.977 32.0467 131.413 32.5826C132.688 34.1633 132.331 36.3442 130.6 37.5615C130.014 37.9851 129.335 38.2652 128.619 38.379C127.903 38.4929 127.17 38.4372 126.48 38.2166C124.558 37.6671 123.401 36.1033 123.567 34.3366C123.716 32.7052 125.268 31.2512 127.092 31.0188C127.322 30.9849 127.581 30.9807 127.773 30.968Z" fill="#4B9AFA"/>
<path d="M138.539 34.4381C136.154 34.4381 134.666 32.4389 135.367 30.1819C136.018 28.0686 138.395 26.6358 140.47 27.0627C140.916 27.1324 141.343 27.2976 141.719 27.5469C142.095 27.7961 142.412 28.1235 142.648 28.5064C142.885 28.8893 143.035 29.3186 143.088 29.7648C143.142 30.2109 143.097 30.6633 142.958 31.0906C142.674 32.0423 142.092 32.8795 141.298 33.4812C140.504 34.083 139.538 34.4181 138.539 34.4381Z" fill="#4B9AFA"/>
<path d="M120.399 22.4769C120.399 21.7299 120.622 20.9996 121.04 20.3787C121.458 19.7577 122.052 19.274 122.746 18.9887C123.441 18.7034 124.205 18.6294 124.942 18.776C125.679 18.9227 126.355 19.2834 126.886 19.8125C127.417 20.3417 127.777 21.0154 127.922 21.7484C128.067 22.4813 127.99 23.2406 127.701 23.9301C127.412 24.6195 126.923 25.2081 126.297 25.6213C125.671 26.0345 124.935 26.2537 124.184 26.2512C123.181 26.2402 122.223 25.8386 121.515 25.1328C120.808 24.427 120.407 23.4733 120.399 22.4769Z" fill="#4B9AFA"/>
<path d="M117.597 24.2224C117.563 25.6088 117.303 26.7584 116.513 27.7812C115.428 29.1506 113.808 29.1675 112.686 27.8277C111.218 26.0821 111.201 22.7009 112.647 20.93C113.804 19.5141 115.458 19.5479 116.572 21.0103C117.244 21.9479 117.602 23.0715 117.597 24.2224Z" fill="#4B9AFA"/>
<path d="M105.669 24.1464C105.737 22.8784 105.729 21.6611 105.873 20.4862C106.06 18.9435 107.272 18.4743 108.518 19.4253C109.526 20.1945 109.964 21.3019 110.185 22.498C110.508 24.2182 110.419 25.9131 109.547 27.4642C109.216 28.0494 108.75 28.5478 108.187 28.9182C107.107 29.5986 106.06 29.1168 105.907 27.8573C105.754 26.5978 105.737 25.3171 105.669 24.1464Z" fill="#4B9AFA"/>
<path d="M134.836 22.4557C134.371 22.4547 133.912 22.3618 133.484 22.1826C133.056 22.0033 132.669 21.7412 132.344 21.4116C132.019 21.082 131.763 20.6914 131.592 20.2625C131.42 19.8337 131.336 19.3753 131.345 18.9139C131.351 18.2199 131.565 17.5436 131.959 16.9703C132.352 16.3971 132.908 15.9528 133.556 15.6937C134.203 15.4345 134.914 15.3721 135.597 15.5144C136.281 15.6566 136.906 15.9972 137.395 16.4929C137.884 16.9886 138.213 17.6173 138.342 18.2993C138.471 18.9813 138.394 19.6861 138.12 20.3244C137.846 20.9627 137.388 21.506 136.803 21.8853C136.219 22.2647 135.534 22.4632 134.836 22.4557Z" fill="#4B9AFA"/>
<path d="M126.471 48.3265C124.447 48.297 121.424 45.8963 120.943 43.9436C120.671 42.832 121.199 42.198 122.338 42.253C124.311 42.3544 127.22 44.6621 127.768 46.5683C128.087 47.6757 127.594 48.3477 126.471 48.3265Z" fill="#4B9AFA"/>
<path d="M119.638 11.2427C119.638 9.49709 120.807 8.12768 122.236 8.18263C123.665 8.23757 124.788 9.80985 124.647 11.5047C124.507 13.1996 123.393 14.3914 122.058 14.3323C120.722 14.2731 119.634 12.9037 119.638 11.2427Z" fill="#4B9AFA"/>
<path d="M133.381 41.7247C133.488 41.7796 133.615 41.843 133.764 41.9275C134.081 42.1047 134.349 42.3571 134.543 42.6621C134.738 42.9671 134.854 43.3153 134.88 43.6756C134.907 44.0359 134.843 44.3972 134.695 44.7271C134.547 45.057 134.319 45.3454 134.032 45.5666C133.591 45.9545 133.055 46.2206 132.479 46.3385C131.902 46.4564 131.304 46.422 130.745 46.2386C130.211 46.1126 129.735 45.8106 129.395 45.3816C129.055 44.9526 128.872 44.4219 128.874 43.876C128.942 42.701 129.997 41.6613 131.353 41.4457H131.464C131.757 41.4265 132.051 41.4265 132.344 41.4457L132.501 41.4668C132.807 41.5054 133.104 41.5924 133.381 41.7247Z" fill="#4B9AFA"/>
<path d="M141.648 37.7897C143.315 37.7897 144.152 39.0577 143.417 40.5328C143.083 41.252 142.554 41.8642 141.889 42.3003C141.224 42.7365 140.45 42.9792 139.654 43.0011C138.012 43.1025 137.149 41.7796 137.812 40.2834C138.169 39.5648 138.713 38.9544 139.387 38.5158C140.062 38.0772 140.843 37.8265 141.648 37.7897Z" fill="#4B9AFA"/>
<path d="M117.665 10.7947C117.593 12.4853 117.18 14.0702 116.066 15.3762C115.743 15.7524 115.05 16.1624 114.667 16.0567C114.284 15.9511 113.876 15.2452 113.817 14.7592C113.693 13.8168 113.762 12.8593 114.02 11.9441C114.278 11.029 114.719 10.1751 115.318 9.4337C115.494 9.21055 115.716 9.02702 115.969 8.89517C116.222 8.76333 116.5 8.68614 116.785 8.66869C117.499 8.72786 117.563 9.514 117.661 10.1438C117.679 10.3603 117.681 10.5779 117.665 10.7947Z" fill="#4B9AFA"/>
<path d="M128.768 6.09471C130.469 6.13698 132.004 7.90791 131.821 9.56895C131.808 9.8204 131.743 10.0666 131.632 10.2926C131.52 10.5187 131.364 10.72 131.172 10.8843C130.98 11.0486 130.756 11.1726 130.515 11.2487C130.274 11.3248 130.019 11.3515 129.767 11.3272C128.168 11.2596 126.629 9.55204 126.731 7.94595C126.734 7.68888 126.79 7.43522 126.896 7.20063C127.002 6.96603 127.155 6.75549 127.346 6.58201C127.537 6.40852 127.762 6.27577 128.006 6.19196C128.251 6.10814 128.51 6.07505 128.768 6.09471Z" fill="#4B9AFA"/>
<path d="M147.622 23.766C148.12 22.9545 149.013 22.9207 149.727 23.5377C151.003 24.6535 151.237 27.4769 150.152 28.7745C150.036 28.9527 149.879 29.1007 149.693 29.2061C149.508 29.3115 149.299 29.3713 149.086 29.3804C148.872 29.3895 148.66 29.3477 148.466 29.2584C148.272 29.1692 148.102 29.0351 147.971 28.8674C147.579 28.4611 147.3 27.9599 147.163 27.4135C147.04 26.747 147.019 26.066 147.099 25.3932C147.147 24.8184 147.326 24.262 147.622 23.766Z" fill="#4B9AFA"/>
<path d="M141.388 14.383C141.408 13.7686 141.672 13.1871 142.123 12.7658C142.573 12.3444 143.173 12.1174 143.791 12.1345C144.105 12.1432 144.414 12.2136 144.7 12.3415C144.987 12.4694 145.245 12.6523 145.46 12.8797C145.675 13.1072 145.842 13.3746 145.953 13.6667C146.064 13.9588 146.115 14.2698 146.104 14.5817C146.069 15.1961 145.797 15.7734 145.345 16.1938C144.893 16.6141 144.295 16.8451 143.676 16.8386C143.363 16.83 143.054 16.7593 142.768 16.6305C142.483 16.5018 142.226 16.3176 142.013 16.0889C141.8 15.8602 141.635 15.5915 141.528 15.2986C141.42 15.0056 141.373 14.6944 141.388 14.383Z" fill="#4B9AFA"/>
<path d="M106.911 32.6206C107.63 32.5736 108.348 32.7262 108.985 33.0613C109.621 33.3965 110.152 33.9009 110.517 34.5184C111.686 36.3062 111.937 38.3223 111.822 40.4355C109.705 38.1912 108.289 35.5201 106.911 32.6206Z" fill="#4B9AFA"/>
<path d="M149.34 12.3331C147.831 11.9105 146.615 10.4227 146.827 8.95186C146.859 8.73237 146.937 8.52184 147.054 8.33347C147.172 8.1451 147.328 7.98295 147.512 7.85718C147.767 7.72616 148.362 7.9713 148.634 8.22489C149.412 8.94725 150.131 9.72871 150.786 10.5622C151.062 10.913 151.322 11.5343 151.19 11.8766C151.094 12.0295 150.941 12.1387 150.765 12.181C150.322 12.394 149.818 12.4477 149.34 12.3331Z" fill="#4B9AFA"/>
<path d="M152.087 35.9807C150.76 37.7897 149.515 39.5184 148.235 41.2175C147.95 41.5936 147.507 41.6148 147.418 41.0399C147.31 40.2738 147.368 39.4936 147.588 38.7516C147.808 38.0096 148.185 37.3228 148.694 36.7373C149.527 35.7356 150.646 35.6764 152.087 35.9807Z" fill="#4B9AFA"/>
<path d="M111.61 8.52921C112.541 11.3906 110.24 15.1015 107.472 15.2917C108.642 12.9206 109.407 10.3804 111.61 8.52921Z" fill="#4B9AFA"/>
<path d="M133.403 3.99833C134.712 4.01946 136.753 5.41845 137.208 6.61034C137.472 7.30773 137.208 7.71348 136.452 7.74729C135.133 7.81069 132.952 6.34407 132.51 5.09723C132.255 4.38294 132.578 3.98565 133.403 3.99833Z" fill="#4B9AFA"/>
<path d="M114.374 43.0941C117.35 42.9504 120.238 44.7847 120.425 46.974C118.252 45.9385 116.453 44.4888 114.374 43.0941Z" fill="#4B9AFA"/>
<path d="M154.588 29.2182C154.056 30.8624 153.558 32.3882 153.018 34.045C151.994 33.2757 152.296 32.3544 152.444 31.5851C152.717 30.1101 153.384 29.3789 154.588 29.2182Z" fill="#4B9AFA"/>
</g>
<defs>
<clipPath id="clip0_90_138">
<rect width="155" height="157" fill="white"/>
</clipPath>
</defs>
</svg>
